<?xml version="1.0" encoding="utf-8"?>
<!-- Generator: Adobe Illustrator 25.2.1, SVG Export Plug-In . SVG Version: 6.00 Build 0)  -->
<svg version="1.1" id="Layer_1" xmlns="http://www.w3.org/2000/svg" xmlns:xlink="http://www.w3.org/1999/xlink" x="0px" y="0px"
	 viewBox="0 0 1024 654" style="enable-background:new 0 0 1024 654;" xml:space="preserve">
<style type="text/css">
	.st0{fill:#DA4B39;}
	.st1{enable-background:new    ;}
</style>
<path class="st0" d="M774.4,208.6L827.2,7.7l-55,201.4C773,208.9,773.7,208.7,774.4,208.6"/>
<path class="st0" d="M766.3,210.9L710.8,7.7l53.5,203.6C765,211.1,765.6,211,766.3,210.9"/>
<path class="st0" d="M762.6,211.8l-106-181.6l104.2,182.5C761.3,212.3,761.9,212,762.6,211.8"/>
<path class="st0" d="M759.1,213.6L610,65.9l147.5,148.9C758,214.4,758.5,214,759.1,213.6"/>
<path class="st0" d="M755.8,216.2L574.2,112.5l180.2,105.2C754.9,217.2,755.3,216.7,755.8,216.2"/>
<path class="st0" d="M768.3,210.9c0.6-0.4,1.1-0.7,1.7-0.9L769,0l-1,210.9C768.1,210.9,768.2,210.9,768.3,210.9"/>
<path class="st0" d="M779.5,208.7L881.5,30.1l-104,178.2C778.1,208.4,778.8,208.5,779.5,208.7"/>
<path class="st0" d="M752.9,219.6l-201.2-52.9l200,54.6C752.1,220.8,752.5,220.2,752.9,219.6"/>
<path class="st0" d="M789.9,220.3l196.4-53.6l-196.8,51.7C789.7,219.1,789.8,219.7,789.9,220.3"/>
<path class="st0" d="M784.5,210.8L928.1,65.9L782.8,209.8C783.4,210.1,784,210.4,784.5,210.8"/>
<path class="st0" d="M788.2,215l175.6-102.5L787.1,213.4C787.5,213.9,787.8,214.4,788.2,215"/>
<path class="st0" d="M790,224c0,0.7-0.1,1.3-0.2,1.9l204.2-1L790,224z"/>
<path class="st0" d="M797.2,272.2c-0.3,0.4-0.8,0.7-1.3,1l85.6,146.6L797.2,272.2z"/>
<path class="st0" d="M807.3,262.1c-0.3,0.4-0.8,0.8-1.3,1L928,384L807.3,262.1z"/>
<path class="st0" d="M773.2,244.2l54.1,198l-51.1-194.4C775.2,246.6,774.2,245.4,773.2,244.2"/>
<path class="st0" d="M792.4,238.2c3.8,2.1,8.1,3.7,10.5,7.3l160.9,91.9L792,237.1C792.1,237.5,792.3,237.9,792.4,238.2"/>
<path class="st0" d="M788,231l198.3,52.1l-197.5-53.9C788.6,229.9,788.3,230.4,788,231"/>
<path class="st0" d="M768,245l1,204.9l1-205.3C769.3,244.8,768.7,244.9,768,245"/>
<path class="st0" d="M748.7,235.6L574.2,337.4l175.2-100.1C749.1,236.8,748.9,236.2,748.7,235.6"/>
<path class="st0" d="M750.4,224l-206.3,1l205.5,1C749.8,225.2,750.1,224.6,750.4,224"/>
<path class="st0" d="M748.4,230.9c0.1-0.5,0.1-1,0.2-1.5l-196.9,53.8l196.6-51.7C748.3,231.3,748.3,231.1,748.4,230.9"/>
<path class="st0" d="M762.6,245l-51.8,197.2l53.8-197.1C763.9,245.1,763.3,245.1,762.6,245"/>
<path class="st0" d="M752,240.6L610,384l143.5-142.2C753,241.4,752.5,241,752,240.6"/>
<path class="st0" d="M757.1,243.6L656.5,419.7l102.4-175.5C758.3,244.1,757.7,243.9,757.1,243.6"/>
<path d="M775,235.1c-0.9-1.5,1.1-2.9,2.3-1.7l28.9,29.9l38.4-38.4L769,149.4l-75.6,75.6l75.6,75.6l28.2-28.3L775,235.1z M769,229.7
	c-2.7,0-4.8-2.1-4.8-4.8c0-2.6,2.2-4.8,4.8-4.8c2.7,0,4.8,2.1,4.8,4.8S771.7,229.7,769,229.7"/>
<polygon points="0,503.8 132.3,503.8 132.3,545.8 49.2,545.8 49.2,564.5 117.9,564.5 117.9,602.8 49.2,602.8 49.2,650.9 0,650.9 "/>
<polygon points="130.6,464.9 256.1,464.9 256.1,505.2 178.9,505.2 178.9,520.2 250.8,520.2 250.8,555.7 178.9,555.7 178.9,571.6 
	257.1,571.6 257.1,612 130.6,612 "/>
<path d="M231.7,625.8l26.3-31.3c16,12.2,34.3,17.2,51.5,17.2c8.8,0,12.6-2.3,12.6-6.3V605c0-4.2-4.6-6.5-20.4-9.7
	c-33-6.7-62-16.2-62-47.3v-0.4c0-28,21.9-49.6,62.4-49.6c28.4,0,49.4,6.7,66.4,20.2l-24,33.2c-13.9-10.1-30.5-14.5-44.1-14.5
	c-7.4,0-10.7,2.5-10.7,6.1v0.4c0,4,4,6.5,19.5,9.5c37.6,6.9,62.8,17.9,62.8,47.5v0.4c0,30.9-25.4,49.8-64.9,49.8
	C277.3,650.6,250.4,642.2,231.7,625.8"/>
<polygon points="388,537.2 344.7,537.2 344.7,495.6 480.5,495.6 480.5,537.2 437.2,537.2 437.2,642.7 388,642.7 "/>
<path d="M24,375.6v-0.4c0-43.9,34.3-76.7,78.2-76.7c32.4,0,54.2,15.8,66.6,38.2l-40.6,23.8c-5.5-10.5-13.2-17.9-26.7-17.9
	c-16.6,0-27.5,14.5-27.5,32.1v0.4c0,19.1,11.3,32.6,27.5,32.6c13.9,0,21.7-7.6,27.7-18.5l40.6,22.9c-12.4,21.9-33,39.7-69.6,39.7
	C59.5,451.9,24,421.2,24,375.6"/>
<path d="M180.7,316.7h48.8l62,148.2h-53.4l-7.8-19.8h-51.5l-7.6,19.8h-52.5L180.7,316.7z M218.1,410.2l-13.4-35.7l-13.4,35.7H218.1z
	"/>
<path d="M278.9,301.6h66.2c39.1,0,65.8,17.4,65.8,52.3v0.4c0,35.5-27.1,54.4-66.8,54.4h-16v39.9h-49.2L278.9,301.6L278.9,301.6z
	 M341.3,373.7c12.6,0,21-5.7,21-16.2v-0.4c0-10.7-7.8-16.2-20.8-16.2h-13.5v32.8L341.3,373.7L341.3,373.7z"/>
<path d="M361.3,475l26.3-31.3c16,12.2,34.3,17.2,51.5,17.2c8.8,0,12.6-2.3,12.6-6.3v-0.4c0-4.2-4.6-6.5-20.4-9.7
	c-33-6.7-62-16.2-62-47.3v-0.4c0-28,21.9-49.6,62.4-49.6c28.4,0,49.4,6.7,66.4,20.2l-24,33.2c-13.9-10.1-30.5-14.5-44.1-14.5
	c-7.4,0-10.7,2.5-10.7,6.1v0.4c0,4,4,6.5,19.5,9.5c37.6,6.9,62.8,17.9,62.8,47.5v0.4c0,30.9-25.4,49.8-64.9,49.8
	C406.9,499.8,380,491.4,361.3,475"/>
<polygon points="504.8,366.6 461.5,366.6 461.5,325 597.3,325 597.3,366.6 554,366.6 554,472.1 504.8,472.1 "/>
<path d="M575.6,386.4V386c0-42.7,35.1-76.7,80.5-76.7s80.1,33.6,80.1,76.3v0.4c0,42.7-35.1,76.7-80.5,76.7
	C610.2,462.7,575.6,429.1,575.6,386.4 M686.5,386.4V386c0-17.4-12-33.2-30.9-33.2c-18.7,0-30.5,15.5-30.5,32.8v0.4
	c0,17.4,12,33.2,30.9,33.2C674.8,419.2,686.5,403.7,686.5,386.4"/>
<polygon points="732.4,359.5 778.5,359.5 830.8,424.5 830.8,359.5 879.5,359.5 879.5,506.7 835.8,506.7 781.2,438.8 781.2,506.7 
	732.4,506.7 "/>
<polygon points="877.7,346.2 1003.2,346.2 1003.2,386.5 926,386.5 926,401.5 997.9,401.5 997.9,437 926,437 926,452.9 1004.2,452.9 
	1004.2,493.3 877.7,493.3 "/>
<path d="M535.6,587.1l62.2-44.6c9.4-6.7,13.1-12.5,13.1-18.2c0-6.4-4.9-11.2-13.5-11.2c-8.6,0-16.5,5.4-29,18.7l-33.1-28.1
	c17.4-21.5,35-33,66.3-33c34.3,0,59,20.6,59,49.1v0.4c0,23-12.2,35.4-30.3,47l-26.8,17.2h58.6v39.3H535.6V587.1z"/>
<path d="M650,569.5v-0.4c0-41.4,27-78.3,72.5-78.3s72.1,36.5,72.1,77.9v0.4c0,41.4-27,78.3-72.5,78.3C676.6,647.5,650,611,650,569.5
	 M744.8,569.5v-0.4c0-20.6-9.2-34.8-22.8-34.8s-22.3,13.7-22.3,34.3v0.4c0,20.6,9.2,34.8,22.8,34.8
	C736,603.9,744.8,590.2,744.8,569.5"/>
<path d="M802.2,612.4l67.7-48.6c10.3-7.2,14.2-13.5,14.2-19.8c0-7-5.4-12.2-14.7-12.2s-18,5.8-31.5,20.3l-36-30.6
	c18.9-23.3,38.1-36,72.2-36c37.4,0,64.2,22.4,64.2,53.5v0.5c0,25-13.3,38.5-32.9,51.1l-29.2,18.7H940v42.7H802.2V612.4z"/>
<g class="st1">
	<path class="st0" d="M4.6,448.6h3.3l4.3,21.9H9.1l-0.9-4.9H4.1l-0.9,4.9h-3L4.6,448.6z M7.8,462.9l-1.6-8.8l-1.6,8.8H7.8z"/>
</g>
<g class="st1">
	<path class="st0" d="M13.5,448.7h3.5c3.9,0,6.6,2.1,6.6,6.8v0.2c0,2.9-1.2,4.8-2.9,5.8l3.3,9h-3.3l-2.9-8c-0.1,0-0.3,0-0.4,0h-0.8
		v7.9h-3.1V448.7z M17.1,459.8c2.1,0,3.5-1.2,3.5-4v-0.2c0-3-1.5-4-3.5-4h-0.4v8.2L17.1,459.8L17.1,459.8z"/>
</g>
<g class="st1">
	<path class="st0" d="M27.2,451.6h-3v-2.9h8.9v2.9h-2.9v18.9h-3V451.6z"/>
</g>
<g class="st1">
	<path class="st0" d="M34.1,469.7v-3.2c1.4,0.8,2.5,1.3,3.5,1.3c1.3,0,2.3-0.8,2.3-2.2v-0.1c0-1.2-0.4-2.1-2.4-4.5
		c-2.7-3.2-3.6-4.6-3.6-7v-0.1c0-3.2,2.2-5.3,5-5.3c1.5,0,2.4,0.3,3.4,0.8v3.2c-1.2-0.7-2-1.1-3-1.1c-1.2,0-2.2,0.8-2.2,2.2v0.1
		c0,1.2,0.4,1.9,2.4,4.2c2.9,3.4,3.6,4.9,3.6,7.4v0.1c0,3.2-2.3,5.4-5.1,5.4C36.5,470.7,35.2,470.3,34.1,469.7z"/>
</g>
<g class="st1">
	<path class="st0" d="M48.5,465.1v-0.2c0-2.6,1.2-4.7,3.4-6.6c-1.3-2.1-1.9-3.6-1.9-5.1V453c0-2.5,1.7-4.5,4.3-4.5
		c2.5,0,4.1,2,4.1,4.5v0.2c0,2.4-1.2,4.2-3.2,5.9l2.4,4.5c0.2-0.9,0.4-2,0.6-3.5l2.4,0.4c-0.3,2.4-0.8,4.2-1.4,5.7l1.9,3.3l-2.2,1.4
		l-1.2-2.3c-1,1.4-2.2,2.3-4.2,2.3C50.6,470.8,48.5,468.4,48.5,465.1z M56.2,466.4l-3.1-6c-1.2,1.2-1.7,2.8-1.7,4.2v0.2
		c0,1.9,0.9,3.2,2.3,3.2C54.8,468.1,55.6,467.5,56.2,466.4z M55.6,453.2V453c0-1.2-0.6-2.1-1.5-2.1c-1,0-1.6,0.9-1.6,2v0.2
		c0,1,0.4,2.1,1.3,3.8C55.2,455.8,55.6,454.5,55.6,453.2z"/>
</g>
<g class="st1">
	<path class="st0" d="M1.3,474.4h3.1v9.4h4.3v-9.4h3.1v21.8h-3v-9.5H4.4v9.5H1.3V474.4z"/>
</g>
<g class="st1">
	<path class="st0" d="M14,490v-15.7h3v16c0,2.3,0.9,3.3,2.1,3.3c1.3,0,2.2-1,2.2-3.3v-16h3V490c0,4.3-2.1,6.4-5.2,6.4
		S14,494.3,14,490z"/>
	<path class="st0" d="M27,474.4h3.1l3.1,9.2l3.1-9.2h3.2v21.8h-3v-14.9l-3.2,9.6h-0.1l-3.2-9.6v14.9H27V474.4z"/>
</g>
<g class="st1">
	<path class="st0" d="M44.8,474.3H48l4.3,21.9h-3.1l-0.9-4.9h-4.1l-0.9,4.9h-3L44.8,474.3z M48,488.5l-1.6-8.8l-1.6,8.8H48z"/>
</g>
<g class="st1">
	<path class="st0" d="M53.7,474.4h2.9l4.7,13.2v-13.2h3v21.8h-2.8l-4.9-13.7v13.7h-3V474.4z"/>
	<path class="st0" d="M67.1,474.4h3.1v21.8h-3.1V474.4z"/>
</g>
<g class="st1">
	<path class="st0" d="M74.4,477.3h-3v-2.9h8.9v2.9h-2.9v18.9h-3.1V477.3z"/>
</g>
<g class="st1">
	<path class="st0" d="M81.9,474.4H85v21.8h-3.1V474.4z"/>
	<path class="st0" d="M87.8,474.4h8.1v2.9h-5v6.5h4.4v2.9h-4.4v6.6h5.1v2.9h-8.2L87.8,474.4L87.8,474.4z"/>
</g>
<g class="st1">
	<path class="st0" d="M96.9,495.4v-3.2c1.4,0.8,2.5,1.3,3.6,1.3c1.3,0,2.3-0.8,2.3-2.2v-0.1c0-1.2-0.4-2.1-2.4-4.5
		c-2.7-3.2-3.6-4.6-3.6-7v-0.1c0-3.2,2.2-5.3,5-5.3c1.5,0,2.4,0.3,3.4,0.8v3.2c-1.2-0.7-2-1.1-3-1.1c-1.2,0-2.2,0.8-2.2,2.2v0.1
		c0,1.2,0.4,1.9,2.4,4.2c2.9,3.4,3.6,4.9,3.6,7.4v0.1c0,3.2-2.3,5.4-5.1,5.4C99.3,496.4,98,496,96.9,495.4z"/>
</g>
<g>
	<path d="M974.5,532.6L950,538l-9-37.2l45-12.3h38.1v151.7h-49.5V532.6z"/>
</g>
</svg>
