<?xml version="1.0" encoding="utf-8"?>
<!-- Generator: Adobe Illustrator 23.0.6, SVG Export Plug-In . SVG Version: 6.00 Build 0)  -->
<svg version="1.1" id="Layer_1" xmlns="http://www.w3.org/2000/svg" xmlns:xlink="http://www.w3.org/1999/xlink" x="0px" y="0px"
	 viewBox="0 0 1024 654.04" style="enable-background:new 0 0 1024 654.04;" xml:space="preserve">
<style type="text/css">
	.st0{fill:#DA4B39;}
	.st1{enable-background:new    ;}
</style>
<path class="st0" d="M774.41,208.56l52.81-200.9l-54.99,201.42C772.95,208.85,773.68,208.68,774.41,208.56"/>
<path class="st0" d="M766.27,210.89L710.78,7.66l53.52,203.58C764.95,211.08,765.61,210.96,766.27,210.89"/>
<path class="st0" d="M762.56,211.79L656.53,30.14l104.2,182.47C761.33,212.3,761.94,212.02,762.56,211.79"/>
<path class="st0" d="M759.06,213.59L609.95,65.88l147.49,148.89C757.96,214.35,758.5,213.96,759.06,213.59"/>
<path class="st0" d="M755.84,216.19L574.2,112.47l180.24,105.2C754.89,217.16,755.35,216.66,755.84,216.19"/>
<path class="st0" d="M768.3,210.91c0.56-0.35,1.13-0.67,1.7-0.95L769,0l-1,210.87C768.1,210.89,768.2,210.89,768.3,210.91"/>
<path class="st0" d="M779.53,208.66L881.47,30.14L777.43,208.39C778.14,208.43,778.84,208.52,779.53,208.66"/>
<path class="st0" d="M752.92,219.61l-201.19-52.89l200.05,54.62C752.14,220.75,752.52,220.17,752.92,219.61"/>
<path class="st0" d="M789.87,220.34l196.4-53.62l-196.76,51.72C789.67,219.05,789.79,219.68,789.87,220.34"/>
<path class="st0" d="M784.49,210.81L928.06,65.88l-145.27,143.9C783.38,210.08,783.95,210.43,784.49,210.81"/>
<path class="st0" d="M788.17,214.98L963.8,112.47l-176.69,100.9C787.5,213.87,787.85,214.41,788.17,214.98"/>
<path class="st0" d="M789.97,223.97c-0.05,0.66-0.13,1.3-0.25,1.93l204.22-0.97L789.97,223.97z"/>
<path class="st0" d="M797.2,272.17c-0.35,0.4-0.78,0.74-1.29,0.98l85.56,146.59L797.2,272.17z"/>
<path class="st0" d="M807.29,262.08c-0.35,0.41-0.79,0.75-1.31,0.99l122.07,120.92L807.29,262.08z"/>
<path class="st0" d="M773.17,244.23l54.06,197.98l-51.09-194.36C775.16,246.64,774.17,245.43,773.17,244.23"/>
<path class="st0" d="M792.43,238.24c3.83,2.09,8.14,3.66,10.46,7.27L963.8,337.4L791.98,237.12
	C792.14,237.49,792.3,237.86,792.43,238.24"/>
<path class="st0" d="M788,231.03l198.27,52.12l-197.48-53.92C788.56,229.85,788.29,230.45,788,231.03"/>
<path class="st0" d="M768.03,244.96L769,449.87l0.97-205.27C769.35,244.76,768.7,244.87,768.03,244.96"/>
<path class="st0" d="M748.71,235.55L574.2,337.4l175.23-100.06C749.14,236.77,748.9,236.18,748.71,235.55"/>
<path class="st0" d="M750.39,223.96l-206.32,0.98l205.52,0.97C749.82,225.25,750.09,224.6,750.39,223.96"/>
<path class="st0" d="M748.36,230.87c0.06-0.49,0.14-0.98,0.24-1.47l-196.86,53.75l196.58-51.68
	C748.32,231.28,748.33,231.08,748.36,230.87"/>
<path class="st0" d="M762.63,244.99l-51.85,197.22l53.81-197.08C763.94,245.11,763.29,245.06,762.63,244.99"/>
<path class="st0" d="M751.98,240.6L609.95,383.99l143.55-142.2C752.96,241.43,752.46,241.03,751.98,240.6"/>
<path class="st0" d="M757.09,243.65L656.53,419.74l102.41-175.46C758.32,244.09,757.69,243.89,757.09,243.65"/>
<path d="M775.04,235.15c-0.86-1.46,1.08-2.95,2.27-1.74l28.91,29.88l38.36-38.36L769,149.37l-75.57,75.57L769,300.5l28.2-28.33
	L775.04,235.15z M769,229.73c-2.65,0-4.8-2.15-4.8-4.8c0-2.65,2.15-4.8,4.8-4.8c2.65,0,4.8,2.15,4.8,4.8S771.65,229.73,769,229.73"
	/>
<polygon points="0,503.79 132.31,503.79 132.31,545.82 49.18,545.82 49.18,564.52 117.9,564.52 117.9,602.77 49.18,602.77 
	49.18,650.9 0,650.9 "/>
<polygon points="130.59,464.88 256.06,464.88 256.06,505.23 178.93,505.23 178.93,520.15 250.8,520.15 250.8,555.67 178.93,555.67 
	178.93,571.64 257.11,571.64 257.11,611.99 130.59,611.99 "/>
<path d="M231.68,625.8l26.27-31.31c15.97,12.19,34.26,17.23,51.49,17.23c8.83,0,12.61-2.31,12.61-6.31v-0.42
	c0-4.2-4.62-6.52-20.38-9.67c-33-6.72-62-16.18-62-47.29v-0.42c0-27.95,21.86-49.6,62.42-49.6c28.37,0,49.39,6.73,66.41,20.18
	l-23.96,33.2c-13.87-10.09-30.47-14.5-44.14-14.5c-7.36,0-10.72,2.52-10.72,6.09v0.42c0,3.99,3.99,6.52,19.55,9.46
	c37.62,6.94,62.84,17.86,62.84,47.5v0.42c0,30.89-25.43,49.81-64.94,49.81C277.28,650.6,250.38,642.19,231.68,625.8"/>
<polygon points="393.36,527.08 350.06,527.08 350.06,485.47 485.83,485.47 485.83,527.08 442.53,527.08 442.53,632.58 
	393.36,632.58 "/>
<path d="M24.03,375.58v-0.42c0-43.92,34.26-76.71,78.18-76.71c32.37,0,54.22,15.76,66.62,38.25l-40.56,23.75
	c-5.46-10.51-13.24-17.86-26.69-17.86c-16.6,0-27.53,14.5-27.53,32.15v0.42c0,19.13,11.35,32.58,27.53,32.58
	c13.87,0,21.65-7.57,27.74-18.5l40.56,22.91c-12.4,21.86-33,39.72-69.56,39.72C59.55,451.87,24.03,421.19,24.03,375.58"/>
<path d="M180.71,316.68h48.76l62,148.16h-53.38l-7.78-19.76h-51.49l-7.57,19.76h-52.54L180.71,316.68z M218.12,410.2l-13.45-35.73
	l-13.45,35.73H218.12z"/>
<path d="M262.25,301.41h66.2c39.09,0,65.78,17.44,65.78,52.33v0.42c0,35.52-27.11,54.43-66.83,54.43h-15.97v39.93h-49.18
	L262.25,301.41L262.25,301.41z M324.66,373.5c12.61,0,21.01-5.67,21.01-16.18v-0.42c0-10.72-7.78-16.18-20.81-16.18h-13.45v32.79
	h13.25V373.5z"/>
<path d="M352.3,485.66l26.27-31.31c15.97,12.19,34.26,17.23,51.49,17.23c8.83,0,12.61-2.31,12.61-6.31v-0.42
	c0-4.2-4.62-6.52-20.38-9.67c-33-6.73-62-16.18-62-47.29v-0.42c0-27.95,21.86-49.6,62.42-49.6c28.37,0,49.39,6.73,66.41,20.18
	l-23.96,33.2c-13.87-10.09-30.47-14.5-44.14-14.5c-7.36,0-10.72,2.52-10.72,6.09v0.42c0,3.99,3.99,6.52,19.55,9.46
	c37.62,6.94,62.84,17.86,62.84,47.5v0.42c0,30.89-25.43,49.81-64.94,49.81C397.9,510.46,371,502.05,352.3,485.66"/>
<polygon points="492.84,366.58 449.54,366.58 449.54,324.96 585.31,324.96 585.31,366.58 542.02,366.58 542.02,472.08 
	492.84,472.08 "/>
<path d="M548.11,386.44v-0.42c0-42.66,35.1-76.71,80.49-76.71s80.07,33.63,80.07,76.29v0.42c0,42.66-35.1,76.71-80.49,76.71
	C582.79,462.72,548.11,429.1,548.11,386.44 M659.08,386.44v-0.42c0-17.44-11.98-33.2-30.9-33.2c-18.7,0-30.47,15.55-30.47,32.78
	v0.42c0,17.44,11.98,33.21,30.9,33.21C647.31,419.22,659.08,403.67,659.08,386.44"/>
<polygon points="699.48,341.45 745.51,341.45 797.84,406.39 797.84,341.45 846.59,341.45 846.59,488.57 802.88,488.57 
	748.24,420.68 748.24,488.57 699.48,488.57 "/>
<polygon points="832.26,356.85 957.73,356.85 957.73,397.2 880.6,397.2 880.6,412.12 952.47,412.12 952.47,447.64 880.6,447.64 
	880.6,463.61 958.78,463.61 958.78,503.96 832.26,503.96 "/>
<path d="M491.72,586.23l62.24-44.64c9.44-6.65,13.09-12.45,13.09-18.24c0-6.44-4.93-11.16-13.52-11.16s-16.53,5.37-28.98,18.67
	l-33.05-28.12c17.38-21.46,34.98-33.05,66.32-33.05c34.34,0,59.02,20.6,59.02,49.15v0.43c0,22.96-12.23,35.41-30.26,47l-26.83,17.17
	h58.59v39.28H491.72V586.23z"/>
<path d="M606.04,568.65v-0.43c0-41.42,27.04-78.34,72.54-78.34s72.11,36.49,72.11,77.91v0.43c0,41.42-27.04,78.34-72.54,78.34
	C632.65,646.56,606.04,610.07,606.04,568.65 M700.9,568.65v-0.43c0-20.6-9.23-34.77-22.75-34.77s-22.32,13.74-22.32,34.34v0.43
	c0,20.6,9.23,34.77,22.75,34.77C692.09,602.99,700.9,589.26,700.9,568.65"/>
<path d="M740.25,612.36l67.73-48.58c10.27-7.24,14.24-13.55,14.24-19.85c0-7.01-5.37-12.15-14.71-12.15s-17.98,5.84-31.53,20.32
	l-35.96-30.59c18.91-23.35,38.06-35.97,72.16-35.97c37.36,0,64.22,22.42,64.22,53.48v0.47c0,24.99-13.31,38.53-32.93,51.14
	l-29.19,18.68h63.75v42.73H740.25V612.36z"/>
<path d="M866.6,569.27v-0.47c0-45.07,29.43-85.23,78.93-85.23c49.51,0,78.47,39.7,78.47,84.76v0.47c0,45.07-29.43,85.24-78.93,85.24
	C895.56,654.04,866.6,614.34,866.6,569.27 M969.82,569.27v-0.47c0-22.42-10.04-37.83-24.75-37.83s-24.29,14.95-24.29,37.36v0.47
	c0,22.42,10.04,37.83,24.75,37.83C960.24,606.63,969.82,591.68,969.82,569.27"/>
<g class="st1">
	<path class="st0" d="M4.61,448.65h3.27l4.33,21.86H9.13l-0.87-4.86H4.14l-0.87,4.86H0.28L4.61,448.65z M7.79,462.88l-1.59-8.75
		l-1.59,8.75H7.79z"/>
</g>
<g class="st1">
	<path class="st0" d="M13.52,448.71h3.55c3.86,0,6.6,2.15,6.6,6.79v0.22c0,2.9-1.21,4.8-2.93,5.82l3.3,8.97h-3.3l-2.93-7.97
		c-0.12,0-0.28,0.03-0.41,0.03H16.6v7.94h-3.08V448.71z M17.13,459.8c2.06,0,3.46-1.25,3.46-4.05v-0.19c0-2.99-1.49-3.99-3.55-3.99
		H16.6v8.22H17.13z"/>
</g>
<g class="st1">
	<path class="st0" d="M27.25,451.6h-2.96v-2.9h8.94v2.9H30.3v18.9h-3.05V451.6z"/>
</g>
<g class="st1">
	<path class="st0" d="M34.07,469.73v-3.24c1.37,0.84,2.49,1.28,3.55,1.28c1.31,0,2.3-0.75,2.3-2.24v-0.06c0-1.25-0.4-2.15-2.4-4.55
		c-2.68-3.21-3.64-4.58-3.64-7.04v-0.06c0-3.21,2.18-5.33,4.98-5.33c1.46,0,2.4,0.28,3.36,0.78v3.24c-1.18-0.72-2.02-1.06-3.02-1.06
		c-1.25,0-2.24,0.84-2.24,2.21v0.06c0,1.21,0.4,1.87,2.4,4.24c2.9,3.43,3.64,4.89,3.64,7.35v0.06c0,3.21-2.27,5.36-5.11,5.36
		C36.47,470.73,35.22,470.32,34.07,469.73z"/>
</g>
<g class="st1">
	<path class="st0" d="M48.45,465.09v-0.19c0-2.58,1.21-4.7,3.39-6.6c-1.28-2.15-1.93-3.61-1.93-5.14v-0.19
		c0-2.46,1.68-4.55,4.27-4.55c2.52,0,4.11,1.96,4.11,4.45v0.22c0,2.4-1.18,4.17-3.18,5.89l2.43,4.55c0.25-0.93,0.44-2.02,0.62-3.49
		l2.4,0.4c-0.28,2.4-0.78,4.24-1.4,5.73l1.9,3.3l-2.24,1.37l-1.25-2.34c-1.03,1.37-2.21,2.27-4.17,2.27
		C50.63,470.79,48.45,468.39,48.45,465.09z M56.24,466.43l-3.11-5.95c-1.15,1.25-1.71,2.8-1.71,4.2v0.22c0,1.87,0.93,3.21,2.34,3.21
		C54.83,468.11,55.58,467.49,56.24,466.43z M55.64,453.16v-0.19c0-1.18-0.59-2.06-1.53-2.06c-0.97,0-1.56,0.87-1.56,1.99v0.22
		c0,1,0.41,2.06,1.31,3.77C55.15,455.78,55.64,454.5,55.64,453.16z"/>
</g>
<g class="st1">
	<path class="st0" d="M1.31,474.37h3.08v9.37h4.33v-9.37h3.05v21.8H8.72v-9.5H4.39v9.5H1.31V474.37z"/>
</g>
<g class="st1">
	<path class="st0" d="M14.02,490.03v-15.67h3.05v15.95c0,2.27,0.87,3.3,2.15,3.3c1.31,0,2.18-1.03,2.18-3.3v-15.95h3.02v15.67
		c0,4.3-2.15,6.42-5.2,6.42C16.17,496.45,14.02,494.33,14.02,490.03z"/>
	<path class="st0" d="M26.97,474.37h3.15l3.08,9.25l3.08-9.25h3.15v21.8h-2.96v-14.86l-3.24,9.59h-0.09l-3.24-9.59v14.86h-2.93
		V474.37z"/>
</g>
<g class="st1">
	<path class="st0" d="M44.78,474.3h3.27l4.33,21.86H49.3l-0.87-4.86h-4.11l-0.87,4.86h-2.99L44.78,474.3z M47.96,488.54l-1.59-8.75
		l-1.59,8.75H47.96z"/>
</g>
<g class="st1">
	<path class="st0" d="M53.68,474.37h2.93l4.73,13.2v-13.2h2.99v21.8h-2.77l-4.89-13.7v13.7h-2.99V474.37z"/>
	<path class="st0" d="M67.07,474.37h3.05v21.8h-3.05V474.37z"/>
</g>
<g class="st1">
	<path class="st0" d="M74.39,477.26h-2.96v-2.9h8.94v2.9h-2.93v18.9h-3.05V477.26z"/>
</g>
<g class="st1">
	<path class="st0" d="M81.95,474.37h3.05v21.8h-3.05V474.37z"/>
	<path class="st0" d="M87.75,474.37h8.07v2.9h-4.98v6.48h4.45v2.9h-4.45v6.63h5.08v2.9h-8.16V474.37z"/>
</g>
<g class="st1">
	<path class="st0" d="M96.87,495.39v-3.24c1.37,0.84,2.49,1.28,3.55,1.28c1.31,0,2.3-0.75,2.3-2.24v-0.06c0-1.25-0.4-2.15-2.4-4.55
		c-2.68-3.21-3.64-4.58-3.64-7.04v-0.06c0-3.21,2.18-5.33,4.98-5.33c1.46,0,2.4,0.28,3.36,0.78v3.24c-1.18-0.72-2.02-1.06-3.02-1.06
		c-1.25,0-2.24,0.84-2.24,2.21v0.06c0,1.21,0.4,1.87,2.4,4.24c2.9,3.43,3.64,4.89,3.64,7.35v0.06c0,3.21-2.27,5.36-5.11,5.36
		C99.27,496.38,98.02,495.98,96.87,495.39z"/>
</g>
</svg>
