<?xml version="1.0" encoding="utf-8"?>
<!-- Generator: Adobe Illustrator 23.0.6, SVG Export Plug-In . SVG Version: 6.00 Build 0)  -->
<svg version="1.1" id="Layer_1" xmlns="http://www.w3.org/2000/svg" xmlns:xlink="http://www.w3.org/1999/xlink" x="0px" y="0px"
	 viewBox="0 0 128 128" style="enable-background:new 0 0 128 128;" xml:space="preserve">
<style type="text/css">
	.st0{fill:#9CC5CA;}
</style>
<path class="st0" d="M64,0C28.65,0,0,28.65,0,64s28.65,64,64,64c35.35,0,64-28.65,64-64S99.35,0,64,0z M63.77,117.23
	c-29.27,0-53-23.73-53-53c0-29.27,23.73-53,53-53s53,23.73,53,53C116.77,93.5,93.04,117.23,63.77,117.23z"/>
<rect x="58.5" y="35.5" class="st0" width="11" height="34"/>
<rect x="72" y="45" transform="matrix(-1.836970e-16 1 -1 -1.836970e-16 141.5 -13.5)" class="st0" width="11" height="38"/>
</svg>
