<?xml version="1.0" encoding="utf-8"?>
<!-- Generator: Adobe Illustrator 25.2.1, SVG Export Plug-In . SVG Version: 6.00 Build 0)  -->
<svg version="1.1" id="Layer_1" xmlns="http://www.w3.org/2000/svg" xmlns:xlink="http://www.w3.org/1999/xlink" x="0px" y="0px"
	 viewBox="0 0 512 135.9" style="enable-background:new 0 0 512 135.9;" xml:space="preserve">
<style type="text/css">
	.st0{clip-path:url(#SVGID_2_);}
	.st1{clip-path:url(#SVGID_4_);}
	.st2{clip-path:url(#SVGID_6_);}
	.st3{clip-path:url(#SVGID_8_);}
	.st4{clip-path:url(#SVGID_10_);}
	.st5{clip-path:url(#SVGID_12_);}
	.st6{clip-path:url(#SVGID_14_);}
	.st7{clip-path:url(#SVGID_16_);}
	.st8{clip-path:url(#SVGID_18_);}
	.st9{clip-path:url(#SVGID_20_);}
	.st10{clip-path:url(#SVGID_22_);}
	.st11{clip-path:url(#SVGID_24_);}
	.st12{clip-path:url(#SVGID_26_);}
	.st13{clip-path:url(#SVGID_28_);}
	.st14{clip-path:url(#SVGID_30_);}
	.st15{clip-path:url(#SVGID_32_);}
	.st16{clip-path:url(#SVGID_34_);}
	.st17{clip-path:url(#SVGID_36_);}
	.st18{clip-path:url(#SVGID_38_);}
	.st19{clip-path:url(#SVGID_40_);}
	.st20{clip-path:url(#SVGID_42_);}
	.st21{clip-path:url(#SVGID_44_);}
	.st22{clip-path:url(#SVGID_46_);}
	.st23{clip-path:url(#SVGID_48_);}
	.st24{clip-path:url(#SVGID_50_);}
	.st25{clip-path:url(#SVGID_52_);}
	.st26{clip-path:url(#SVGID_54_);}
	.st27{clip-path:url(#SVGID_56_);}
	.st28{clip-path:url(#SVGID_58_);}
	.st29{clip-path:url(#SVGID_60_);}
	.st30{clip-path:url(#SVGID_62_);}
	.st31{clip-path:url(#SVGID_64_);}
	.st32{clip-path:url(#SVGID_66_);}
	.st33{clip-path:url(#SVGID_68_);}
	.st34{clip-path:url(#SVGID_70_);}
	.st35{clip-path:url(#SVGID_72_);fill:#FFFFFF;}
	.st36{clip-path:url(#SVGID_74_);}
	.st37{fill:none;}
</style>
<g>
	<g>
		<defs>
			<rect id="SVGID_1_" y="0" width="512" height="135.9"/>
		</defs>
		<clipPath id="SVGID_2_">
			<use xlink:href="#SVGID_1_"  style="overflow:visible;"/>
		</clipPath>
		<path class="st0" d="M102.5,47.2h32.2V29.2h-4v14.5h-24.1c0,0,0,0,0-0.1c0.1-0.4,0.2-4.5,5.4-4.5h-0.2v-3.7l0.1,0
			c-9.1,0-9.5,6.9-9.5,8.3L102.5,47.2z"/>
	</g>
	<g>
		<defs>
			<rect id="SVGID_3_" y="0" width="512" height="135.9"/>
		</defs>
		<clipPath id="SVGID_4_">
			<use xlink:href="#SVGID_3_"  style="overflow:visible;"/>
		</clipPath>
		<path class="st1" d="M139.5,35.5l0.1,10.8c0,1.2-0.3,2.2-1,2.8c-0.6,0.6-1.6,1-3,1h-1v3.1h1.1c1.3,0,2.4-0.1,3.4-0.4
			c1-0.3,1.8-0.7,2.4-1.3s1.1-1.3,1.4-2.2c0.3-0.9,0.5-2,0.5-3.3V35.5H139.5z"/>
	</g>
	<g>
		<defs>
			<rect id="SVGID_5_" y="0" width="512" height="135.9"/>
		</defs>
		<clipPath id="SVGID_6_">
			<use xlink:href="#SVGID_5_"  style="overflow:visible;"/>
		</clipPath>
		<path class="st2" d="M88.8,35.6h-4v8.3H72v-8.4h0v0l-3.9,0c-7,0.4-8.4,4.3-8.4,8.4v3.4H68h0c-0.1,0.8-0.4,1.4-0.9,1.8
			c-0.7,0.6-1.6,1-3,1h-2.6v3.1l2.7,0c1.3,0,2.4-0.1,3.4-0.4c1-0.3,1.8-0.7,2.4-1.3c0.6-0.6,1.1-1.3,1.4-2.3
			c0.2-0.5,0.3-1.2,0.4-1.8h16.9L88.8,35.6L88.8,35.6z M68,43.6h-4.5c0-4.8,4.5-4.5,4.5-4.5V43.6z"/>
	</g>
	<g>
		<defs>
			<rect id="SVGID_7_" y="0" width="512" height="135.9"/>
		</defs>
		<clipPath id="SVGID_8_">
			<use xlink:href="#SVGID_7_"  style="overflow:visible;"/>
		</clipPath>
		<path class="st3" d="M172.3,35.6h-4v8.3h-10.1v-8.4h0v0l-3.9,0c-7,0.4-8.4,4.3-8.4,8.4v3.4h8.3h0.1c-0.1,0.8-0.4,1.4-0.9,1.8
			c-0.6,0.6-1.6,1-3,1h-2.6v3.1l2.7,0c1.3,0,2.4-0.1,3.4-0.4s1.8-0.7,2.4-1.3c0.6-0.6,1.1-1.3,1.4-2.3c0.2-0.5,0.3-1.2,0.4-1.8h14.1
			L172.3,35.6L172.3,35.6z M154.3,43.6h-4.6c0-4.8,4.6-4.5,4.6-4.5V43.6z"/>
	</g>
	<g>
		<defs>
			<rect id="SVGID_9_" y="0" width="512" height="135.9"/>
		</defs>
		<clipPath id="SVGID_10_">
			<use xlink:href="#SVGID_9_"  style="overflow:visible;"/>
		</clipPath>
		<path class="st4" d="M210.2,35.6v8.3h-9.8v-8.3h-4v8.3h-8.6v-8.4h0v0l-3.9,0c-7,0.4-8.4,4.3-8.4,8.4v3.4h8.3h0.1
			c-0.1,0.8-0.4,1.4-0.9,1.8c-0.6,0.6-1.6,1-3,1h-2.6v3.1l2.7,0c1.3,0,2.4-0.1,3.4-0.4c1-0.3,1.8-0.7,2.4-1.3s1.1-1.3,1.4-2.3
			c0.2-0.5,0.3-1.2,0.4-1.8h10.9h1.9h13.8V35.6H210.2z M183.7,43.6h-4.6c0-4.8,4.6-4.5,4.6-4.5V43.6z"/>
	</g>
	<g>
		<defs>
			<rect id="SVGID_11_" y="0" width="512" height="135.9"/>
		</defs>
		<clipPath id="SVGID_12_">
			<use xlink:href="#SVGID_11_"  style="overflow:visible;"/>
		</clipPath>
		<path class="st5" d="M50.9,35.5h-8v-7.1h-4v7.1v8.3H26.4v-8.3H12.3v3.7h0.1c3.1,0,4.1,1.4,4.1,2.6c0,2.1-2.6,3-5.2,2.9H9.9
			c-6,0-5.7-4-5.7-4v-5.2H0l0,5.7c0,3.8,4.4,6.7,9.3,6.7h2.6c8.8,0,8.6-5.9,8.6-5.9c0-1.1-0.2-2-0.7-2.8h2.7v8.1h28.1
			c6.9,0,7.3-4.9,7.3-5.9C57.8,41.4,58,35.5,50.9,35.5 M50.6,43.7h-7.7v-4.6h7.6c2.8,0,3.2,1.7,3.2,2.3C53.7,42,53.7,43.7,50.6,43.7
			"/>
	</g>
	<g>
		<defs>
			<rect id="SVGID_13_" y="0" width="512" height="135.9"/>
		</defs>
		<clipPath id="SVGID_14_">
			<use xlink:href="#SVGID_13_"  style="overflow:visible;"/>
		</clipPath>
		<path class="st6" d="M49.3,32.2c0,1-0.8,1.9-1.9,1.9c-1,0-1.9-0.8-1.9-1.9c0-1,0.8-1.9,1.9-1.9C48.5,30.4,49.3,31.2,49.3,32.2"/>
	</g>
	<g>
		<defs>
			<rect id="SVGID_15_" y="0" width="512" height="135.9"/>
		</defs>
		<clipPath id="SVGID_16_">
			<use xlink:href="#SVGID_15_"  style="overflow:visible;"/>
		</clipPath>
		<path class="st7" d="M213.9,32.2c0,1-0.8,1.9-1.9,1.9c-1,0-1.9-0.8-1.9-1.9c0-1,0.8-1.9,1.9-1.9C213.1,30.4,213.9,31.2,213.9,32.2
			"/>
	</g>
	<g>
		<defs>
			<rect id="SVGID_17_" y="0" width="512" height="135.9"/>
		</defs>
		<clipPath id="SVGID_18_">
			<use xlink:href="#SVGID_17_"  style="overflow:visible;"/>
		</clipPath>
		<path class="st8" d="M22.5,51.3c0,1-0.8,1.8-1.9,1.8c-1,0-1.9-0.8-1.9-1.8c0-1,0.8-1.9,1.9-1.9C21.7,49.5,22.5,50.3,22.5,51.3"/>
	</g>
	<g>
		<defs>
			<rect id="SVGID_19_" y="0" width="512" height="135.9"/>
		</defs>
		<clipPath id="SVGID_20_">
			<use xlink:href="#SVGID_19_"  style="overflow:visible;"/>
		</clipPath>
		<path class="st9" d="M85.6,51.5c0,1-0.8,1.8-1.8,1.8s-1.9-0.8-1.9-1.8c0-1,0.8-1.9,1.9-1.9C84.7,49.6,85.6,50.5,85.6,51.5"/>
	</g>
	<g>
		<defs>
			<rect id="SVGID_21_" y="0" width="512" height="135.9"/>
		</defs>
		<clipPath id="SVGID_22_">
			<use xlink:href="#SVGID_21_"  style="overflow:visible;"/>
		</clipPath>
		<path class="st10" d="M10.2,51.3c0,1-0.8,1.8-1.9,1.8c-1,0-1.9-0.8-1.9-1.8c0-1,0.8-1.9,1.9-1.9S10.2,50.3,10.2,51.3"/>
	</g>
	<g>
		<defs>
			<rect id="SVGID_23_" y="0" width="512" height="135.9"/>
		</defs>
		<clipPath id="SVGID_24_">
			<use xlink:href="#SVGID_23_"  style="overflow:visible;"/>
		</clipPath>
		<path class="st11" d="M14.5,51.3c0,1-0.8,1.8-1.9,1.8c-1,0-1.9-0.8-1.9-1.8c0-1,0.8-1.9,1.9-1.9S14.5,50.3,14.5,51.3"/>
	</g>
	<g>
		<defs>
			<rect id="SVGID_25_" y="0" width="512" height="135.9"/>
		</defs>
		<clipPath id="SVGID_26_">
			<use xlink:href="#SVGID_25_"  style="overflow:visible;"/>
		</clipPath>
		<path class="st12" d="M166.6,51.5c0,1-0.8,1.8-1.9,1.8c-1,0-1.9-0.8-1.9-1.8c0-1,0.8-1.9,1.9-1.9
			C165.7,49.6,166.6,50.5,166.6,51.5"/>
	</g>
	<g>
		<defs>
			<rect id="SVGID_27_" y="0" width="512" height="135.9"/>
		</defs>
		<clipPath id="SVGID_28_">
			<use xlink:href="#SVGID_27_"  style="overflow:visible;"/>
		</clipPath>
		<path class="st13" d="M170.8,51.5c0,1-0.8,1.8-1.9,1.8c-1,0-1.9-0.8-1.9-1.8c0-1,0.8-1.9,1.9-1.9C170,49.6,170.8,50.5,170.8,51.5"
			/>
	</g>
	<g>
		<defs>
			<rect id="SVGID_29_" y="0" width="512" height="135.9"/>
		</defs>
		<clipPath id="SVGID_30_">
			<use xlink:href="#SVGID_29_"  style="overflow:visible;"/>
		</clipPath>
		<path class="st14" d="M196.3,51.5c0,1-0.8,1.8-1.9,1.8c-1,0-1.9-0.8-1.9-1.8c0-1,0.8-1.9,1.9-1.9
			C195.5,49.6,196.3,50.5,196.3,51.5"/>
	</g>
	<g>
		<defs>
			<rect id="SVGID_31_" y="0" width="512" height="135.9"/>
		</defs>
		<clipPath id="SVGID_32_">
			<use xlink:href="#SVGID_31_"  style="overflow:visible;"/>
		</clipPath>
		<path class="st15" d="M200.5,51.5c0,1-0.8,1.8-1.9,1.8c-1,0-1.9-0.8-1.9-1.8c0-1,0.8-1.9,1.9-1.9
			C199.7,49.6,200.5,50.5,200.5,51.5"/>
	</g>
	<g>
		<defs>
			<rect id="SVGID_33_" y="0" width="512" height="135.9"/>
		</defs>
		<clipPath id="SVGID_34_">
			<use xlink:href="#SVGID_33_"  style="overflow:visible;"/>
		</clipPath>
		<path class="st16" d="M93.9,31.9L93.9,31.9c0-0.2,0-0.4,0.1-0.5c0.1-0.2,0.1-0.3,0.2-0.4s0.2-0.2,0.4-0.3c0.1-0.1,0.3-0.1,0.7-0.1
			v-1.2c-0.6,0-1,0.1-1.3,0.2c-0.3,0.1-0.6,0.3-0.8,0.6s-0.4,0.5-0.5,0.8s-0.2,0.6-0.2,1v0c0,0,0,0,0,0.1h-0.8v1.3h4V32L93.9,31.9
			C93.9,31.9,93.9,31.9,93.9,31.9"/>
	</g>
	<g>
		<defs>
			<rect id="SVGID_35_" y="0" width="512" height="135.9"/>
		</defs>
		<clipPath id="SVGID_36_">
			<use xlink:href="#SVGID_35_"  style="overflow:visible;"/>
		</clipPath>
		<path class="st17" d="M119.9,38.5L119.9,38.5c0-0.3,0-0.5,0.1-0.7s0.2-0.4,0.3-0.6c0.1-0.2,0.3-0.3,0.5-0.4s0.4-0.1,0.9-0.1v-1.6
			c-0.8,0-1.3,0.1-1.7,0.3c-0.4,0.2-0.8,0.4-1.1,0.7s-0.6,0.7-0.7,1.1S118,38,118,38.5v0c0,0,0,0,0,0.1H117v1.7h5.4v-1.7h-2.4
			C119.9,38.6,119.9,38.5,119.9,38.5"/>
	</g>
	<g>
		<defs>
			<rect id="SVGID_37_" y="0" width="512" height="135.9"/>
		</defs>
		<clipPath id="SVGID_38_">
			<use xlink:href="#SVGID_37_"  style="overflow:visible;"/>
		</clipPath>
		<path class="st18" d="M302.7,35.4l-5.6,0v3.7h5.5c5.1,0,5.3,4.2,5.4,4.5c0,0,0,0,0,0.1h-19.6V29.2h-4v18.1h27.7v-3.6
			C312.2,42.3,311.8,35.4,302.7,35.4"/>
	</g>
	<g>
		<defs>
			<rect id="SVGID_39_" y="0" width="512" height="135.9"/>
		</defs>
		<clipPath id="SVGID_40_">
			<use xlink:href="#SVGID_39_"  style="overflow:visible;"/>
		</clipPath>
		<path class="st19" d="M302.4,49.6c-1,0-1.9,0.8-1.9,1.9c0,1,0.8,1.8,1.9,1.8s1.9-0.8,1.9-1.8C304.3,50.5,303.5,49.6,302.4,49.6"/>
	</g>
	<g>
		<defs>
			<rect id="SVGID_41_" y="0" width="512" height="135.9"/>
		</defs>
		<clipPath id="SVGID_42_">
			<use xlink:href="#SVGID_41_"  style="overflow:visible;"/>
		</clipPath>
		<path class="st20" d="M227.9,34.1c1,0,1.9-0.8,1.9-1.9c0-1-0.8-1.9-1.9-1.9c-1,0-1.9,0.8-1.9,1.9
			C226.1,33.2,226.9,34.1,227.9,34.1"/>
	</g>
	<g>
		<defs>
			<rect id="SVGID_43_" y="0" width="512" height="135.9"/>
		</defs>
		<clipPath id="SVGID_44_">
			<use xlink:href="#SVGID_43_"  style="overflow:visible;"/>
		</clipPath>
		<path class="st21" d="M232.2,34.1c1,0,1.9-0.8,1.9-1.9c0-1-0.8-1.9-1.9-1.9c-1,0-1.9,0.8-1.9,1.9
			C230.3,33.2,231.1,34.1,232.2,34.1"/>
	</g>
	<g>
		<defs>
			<rect id="SVGID_45_" y="0" width="512" height="135.9"/>
		</defs>
		<clipPath id="SVGID_46_">
			<use xlink:href="#SVGID_45_"  style="overflow:visible;"/>
		</clipPath>
		<path class="st22" d="M273.2,35.3l-3.9,0v0h0v8.4H254c-0.1-0.3-0.1-0.7-0.1-1.1v0c0-0.5,0.1-1,0.2-1.5c0.2-0.5,0.4-0.8,0.7-1.2
			c0.3-0.3,0.6-0.6,1.1-0.8c0.4-0.2,0.8-0.3,1.3-0.3c0.7,0,1.3,0.1,1.8,0.4c0.5,0.3,0.9,0.6,1.4,1.1l2.4-2.6
			c-0.6-0.7-1.4-1.3-2.3-1.7s-1.9-0.6-3.2-0.6c-1.1,0-2,0.2-2.9,0.6c-0.9,0.4-1.6,0.9-2.3,1.5c-0.6,0.7-1.1,1.4-1.5,2.3
			c-0.4,0.9-0.5,1.8-0.5,2.8v0c0,0.4,0,0.7,0.1,1h-14.8v-8.2h-4.6c-8,0-9.4,5.9-9.6,8.2h0v0.2c0,0.2,0,0.5,0,0.6v0h0v2.8h60.5v-3.6
			h0C281.6,39.6,280.2,35.7,273.2,35.3 M225.2,43.7c0-0.6-0.2-4.6,5.5-4.6h0.6v4.6H225.2z M273.3,43.7v-4.8c0,0,4.5-0.3,4.5,4.8
			H273.3z"/>
	</g>
	<g>
		<defs>
			<rect id="SVGID_47_" y="0" width="512" height="135.9"/>
		</defs>
		<clipPath id="SVGID_48_">
			<use xlink:href="#SVGID_47_"  style="overflow:visible;"/>
		</clipPath>
		<path class="st23" d="M143.5,75.1h4.6l9.7,22.8h-5.2l-2.1-5.1h-9.6l-2.1,5.1h-5.1L143.5,75.1z M148.7,88.4l-3-7.3l-3,7.3H148.7z"
			/>
	</g>
	<g>
		<defs>
			<rect id="SVGID_49_" y="0" width="512" height="135.9"/>
		</defs>
		<clipPath id="SVGID_50_">
			<use xlink:href="#SVGID_49_"  style="overflow:visible;"/>
		</clipPath>
		<path class="st24" d="M160,75.3h10.5c2.6,0,4.6,0.7,5.9,2c1,1,1.6,2.3,1.6,3.8v0.1c0,2.6-1.4,4-3,4.9c2.6,1,4.2,2.5,4.2,5.6v0.1
			c0,4.1-3.4,6.2-8.5,6.2H160V75.3z M169.5,84.4c2.2,0,3.6-0.7,3.6-2.4V82c0-1.5-1.2-2.3-3.3-2.3h-4.9v4.8H169.5z M170.8,93.6
			c2.2,0,3.5-0.8,3.5-2.5V91c0-1.5-1.1-2.5-3.7-2.5h-5.8v5C164.9,93.6,170.8,93.6,170.8,93.6z"/>
	</g>
	<g>
		<defs>
			<rect id="SVGID_51_" y="0" width="512" height="135.9"/>
		</defs>
		<clipPath id="SVGID_52_">
			<use xlink:href="#SVGID_51_"  style="overflow:visible;"/>
		</clipPath>
		<path class="st25" d="M181.2,88.2V75.3h5v12.8c0,3.7,1.9,5.6,4.9,5.6s4.9-1.8,4.9-5.4v-13h5v12.8c0,6.9-3.9,10.2-9.9,10.2
			C185,98.3,181.2,94.9,181.2,88.2"/>
	</g>
	<g>
		<defs>
			<rect id="SVGID_53_" y="0" width="512" height="135.9"/>
		</defs>
		<clipPath id="SVGID_54_">
			<use xlink:href="#SVGID_53_"  style="overflow:visible;"/>
		</clipPath>
		<path class="st26" d="M211.3,75.3h8.8c7.1,0,12,4.9,12,11.3v0.1c0,6.4-4.9,11.3-12,11.3h-8.8V75.3z M220.1,93.4
			c4.1,0,6.8-2.8,6.8-6.8v-0.1c0-4-2.8-6.8-6.8-6.8h-3.9v13.7L220.1,93.4L220.1,93.4z"/>
	</g>
	<g>
		<defs>
			<rect id="SVGID_55_" y="0" width="512" height="135.9"/>
		</defs>
		<clipPath id="SVGID_56_">
			<use xlink:href="#SVGID_55_"  style="overflow:visible;"/>
		</clipPath>
		<polygon class="st27" points="234.6,75.3 239.6,75.3 239.6,84.2 248.8,84.2 248.8,75.3 253.8,75.3 253.8,97.9 248.8,97.9 
			248.8,88.8 239.6,88.8 239.6,97.9 234.6,97.9 		"/>
	</g>
	<g>
		<defs>
			<rect id="SVGID_57_" y="0" width="512" height="135.9"/>
		</defs>
		<clipPath id="SVGID_58_">
			<use xlink:href="#SVGID_57_"  style="overflow:visible;"/>
		</clipPath>
		<path class="st28" d="M266.1,75.1h4.6l9.7,22.8h-5.2l-2.1-5.1h-9.6l-2.1,5.1h-5.1L266.1,75.1z M271.4,88.4l-3-7.3l-3,7.3H271.4z"
			/>
	</g>
	<g>
		<defs>
			<rect id="SVGID_59_" y="0" width="512" height="135.9"/>
		</defs>
		<clipPath id="SVGID_60_">
			<use xlink:href="#SVGID_59_"  style="overflow:visible;"/>
		</clipPath>
		<path class="st29" d="M283.1,75.3h10.5c2.6,0,4.6,0.7,5.9,2c1,1,1.5,2.3,1.5,3.8v0.1c0,2.6-1.4,4-3,4.9c2.6,1,4.2,2.5,4.2,5.6v0.1
			c0,4.1-3.4,6.2-8.5,6.2h-10.8L283.1,75.3L283.1,75.3z M292.6,84.4c2.2,0,3.6-0.7,3.6-2.4V82c0-1.5-1.2-2.3-3.3-2.3H288v4.8H292.6z
			 M293.9,93.6c2.2,0,3.5-0.8,3.5-2.5V91c0-1.5-1.1-2.5-3.7-2.5H288v5C288,93.6,293.9,93.6,293.9,93.6z"/>
	</g>
	<g>
		<defs>
			<rect id="SVGID_61_" y="0" width="512" height="135.9"/>
		</defs>
		<clipPath id="SVGID_62_">
			<use xlink:href="#SVGID_61_"  style="overflow:visible;"/>
		</clipPath>
		<rect x="304.9" y="75.3" class="st30" width="5" height="22.7"/>
	</g>
	<g>
		<defs>
			<rect id="SVGID_63_" y="0" width="512" height="135.9"/>
		</defs>
		<clipPath id="SVGID_64_">
			<use xlink:href="#SVGID_63_"  style="overflow:visible;"/>
		</clipPath>
		<rect x="127.2" y="66.9" class="st31" width="0.9" height="39.8"/>
	</g>
	<g>
		<defs>
			<rect id="SVGID_65_" y="0" width="512" height="135.9"/>
		</defs>
		<clipPath id="SVGID_66_">
			<use xlink:href="#SVGID_65_"  style="overflow:visible;"/>
		</clipPath>
		<polygon class="st32" points="50.1,75.4 54.7,75.4 65.3,89.3 65.3,75.4 70.2,75.4 70.2,98 66,98 55,83.6 55,98 50.1,98 		"/>
	</g>
	<g>
		<defs>
			<rect id="SVGID_67_" y="0" width="512" height="135.9"/>
		</defs>
		<clipPath id="SVGID_68_">
			<use xlink:href="#SVGID_67_"  style="overflow:visible;"/>
		</clipPath>
		<polygon class="st33" points="81.4,89.1 72.7,75.4 78.5,75.4 83.9,84.4 89.4,75.4 95,75.4 86.3,88.9 86.3,98 81.4,98 		"/>
	</g>
	<g>
		<defs>
			<rect id="SVGID_69_" y="0" width="512" height="135.9"/>
		</defs>
		<clipPath id="SVGID_70_">
			<use xlink:href="#SVGID_69_"  style="overflow:visible;"/>
		</clipPath>
		<path class="st34" d="M97.2,88.3V75.4h5v12.8c0,3.7,1.8,5.6,4.9,5.6c3,0,4.9-1.8,4.9-5.4V75.4h5v12.8c0,6.8-3.8,10.2-9.9,10.2
			C100.9,98.3,97.2,94.9,97.2,88.3"/>
	</g>
	<g>
		<defs>
			<rect id="SVGID_71_" y="0" width="512" height="135.9"/>
		</defs>
		<clipPath id="SVGID_72_">
			<use xlink:href="#SVGID_71_"  style="overflow:visible;"/>
		</clipPath>
		<rect x="4.4" y="71.5" class="st35" width="27.5" height="33.9"/>
	</g>
	<g>
		<defs>
			<rect id="SVGID_73_" y="0" width="512" height="135.9"/>
		</defs>
		<clipPath id="SVGID_74_">
			<use xlink:href="#SVGID_73_"  style="overflow:visible;"/>
		</clipPath>
		<path class="st36" d="M39.8,106.7H0V66.9h39.8C39.8,66.9,39.8,106.7,39.8,106.7z M18.5,102.1c0,0.3,0.6,0.4,0.8,0l1.4-11h-3.4
			L18.5,102.1z M21.9,88.6h-5.7v1.7h5.7V88.6z M20.2,87.8c7.3,0.3,7.8-6.4,7.8-8.9c0-0.1-0.1-0.2-0.1-0.1c-0.2,0.5-1.2,2.4-3.8,3.5
			C21.8,83.3,20.4,85.6,20.2,87.8C20.2,87.7,20.2,87.8,20.2,87.8 M19.5,87.3c1.1-5.5,5.6-5.7,6-6.7c0.6-1.6-0.5-4.5-0.8-4.9
			c0,0-0.1,0-0.1,0c-0.6,1.3-1.6,2.6-2.3,3.2C21.3,79.7,17.4,82.6,19.5,87.3C19.4,87.3,19.4,87.3,19.5,87.3 M18.6,87.5
			c-2.4-5.2,2.4-8.6,3.2-9.3C22,78.1,22,78,22,77.9c0-1.6-0.9-4.3-1.2-4.7c0-0.1-0.1,0-0.1,0c-0.4,1.6-2.6,4-3.1,4.6
			C13.8,82.3,14.6,85,18.6,87.5C18.6,87.6,18.7,87.6,18.6,87.5 M17.6,87.7c-4.1-2.4-3.7-5.9-2-8.5c0-0.1,0.1-0.1,0-0.2
			c-0.1-0.6-0.7-2.2-1-2.6c-0.1-0.1-0.1-0.1-0.1,0c0,0.7-0.8,2.4-2,4.4c-1.3,2.1-1.3,6.8,5.1,6.9C17.6,87.8,17.6,87.7,17.6,87.7"/>
	</g>
	<g>
		<defs>
			<rect id="SVGID_75_" y="0" width="512" height="135.9"/>
		</defs>
		<clipPath id="SVGID_76_">
			<use xlink:href="#SVGID_75_"  style="overflow:visible;"/>
		</clipPath>
	</g>
	<rect y="0" class="st37" width="512" height="135.9"/>
	<rect y="0" class="st37" width="512" height="135.9"/>
	<g>
		<defs>
			<rect id="SVGID_77_" y="0" width="512" height="135.9"/>
		</defs>
		<clipPath id="SVGID_78_">
			<use xlink:href="#SVGID_77_"  style="overflow:visible;"/>
		</clipPath>
	</g>
</g>
</svg>
