<?xml version="1.0" encoding="utf-8"?>
<!-- Generator: Adobe Illustrator 23.0.6, SVG Export Plug-In . SVG Version: 6.00 Build 0)  -->
<svg version="1.1" id="Layer_1" xmlns="http://www.w3.org/2000/svg" xmlns:xlink="http://www.w3.org/1999/xlink" x="0px" y="0px"
	 viewBox="0 0 128 128" style="enable-background:new 0 0 128 128;" xml:space="preserve">
<style type="text/css">
	.st0{fill:#DA4B39;}
</style>
<g>
	<path class="st0" d="M55.88,0C25.02,0,0,25.02,0,55.88c0,30.86,25.02,55.88,55.88,55.88s55.88-25.02,55.88-55.88
		C111.76,25.02,86.75,0,55.88,0z M55.18,95.31c-22.16,0-40.13-17.97-40.13-40.13c0-22.16,17.96-40.13,40.13-40.13
		s40.13,17.96,40.13,40.13C95.31,77.34,77.34,95.31,55.18,95.31z"/>
</g>
<g>
	
		<rect x="95.74" y="77.02" transform="matrix(0.7071 -0.7071 0.7071 0.7071 -42.921 103.6204)" class="st0" width="15.76" height="53.2"/>
</g>
</svg>
